<svg width="83" height="25" viewBox="0 0 83 25" fill="none" xmlns="http://www.w3.org/2000/svg">
<path d="M-1.36197e-05 15.216L5.63999 5.68801H0.215986V2.18401H11.016V5.68801L5.49599 15.192H11.256V18.696H-1.36197e-05V15.216ZM17.5444 18.888C16.2004 18.888 15.1524 18.456 14.4004 17.592C13.6484 16.728 13.2724 15.552 13.2724 14.064V6.67201H18.3604V13.848C18.3604 14.216 18.4564 14.504 18.6484 14.712C18.8564 14.904 19.1204 15 19.4404 15C19.7604 15 20.0884 14.904 20.4244 14.712L20.6884 18.048C20.3364 18.32 19.8724 18.528 19.2964 18.672C18.7364 18.816 18.1524 18.888 17.5444 18.888ZM15.8164 4.87201C15.0644 4.87201 14.4244 4.64001 13.8964 4.17601C13.3844 3.69601 13.1284 3.11201 13.1284 2.42401C13.1284 1.73601 13.4004 1.16001 13.9444 0.696013C14.4884 0.232013 15.1124 1.33514e-05 15.8164 1.33514e-05C16.5524 1.33514e-05 17.1844 0.240014 17.7124 0.720014C18.2564 1.20001 18.5284 1.76801 18.5284 2.42401C18.5284 3.12801 18.2564 3.71201 17.7124 4.17601C17.1684 4.64001 16.5364 4.87201 15.8164 4.87201ZM22.086 6.84001H26.91V9.28801C27.838 7.43201 29.31 6.50401 31.326 6.50401C32.862 6.50401 34.062 7.05601 34.926 8.16001C35.806 9.24801 36.246 10.76 36.246 12.696V18.696H31.206V12.192C31.206 11.504 31.054 10.976 30.75 10.608C30.462 10.24 30.054 10.056 29.526 10.056C29.142 10.056 28.766 10.184 28.398 10.44C28.03 10.68 27.726 11.032 27.486 11.496C27.262 11.96 27.15 12.488 27.15 13.08V18.696H22.086V6.84001ZM45.3545 24.192C44.4745 24.192 43.6345 24.104 42.8345 23.928L43.2185 20.376C43.8425 20.472 44.4185 20.52 44.9465 20.52C45.9385 20.52 46.6905 20.224 47.2025 19.632C47.7145 19.056 48.0185 18.08 48.1145 16.704C47.1705 18.032 45.7305 18.696 43.7945 18.696C42.7385 18.696 41.7625 18.424 40.8665 17.88C39.9865 17.336 39.2825 16.6 38.7545 15.672C38.2425 14.744 37.9865 13.728 37.9865 12.624C37.9865 11.504 38.2425 10.48 38.7545 9.55201C39.2665 8.60801 39.9625 7.86401 40.8425 7.32001C41.7385 6.77601 42.7145 6.50401 43.7705 6.50401C44.7465 6.50401 45.5945 6.76001 46.3145 7.27201C47.0505 7.76801 47.5305 8.44001 47.7545 9.28801V6.50401H52.8186V15.648C52.8186 18.448 52.1785 20.568 50.8985 22.008C49.6345 23.464 47.7865 24.192 45.3545 24.192ZM45.3545 15.096C45.9945 15.096 46.5465 14.872 47.0105 14.424C47.4745 13.96 47.7225 13.416 47.7545 12.792V12.6C47.7225 11.992 47.4665 11.456 46.9865 10.992C46.5225 10.528 45.9785 10.296 45.3545 10.296C44.6985 10.296 44.1385 10.536 43.6745 11.016C43.2105 11.48 42.9785 12.04 42.9785 12.696C42.9785 13.352 43.2105 13.92 43.6745 14.4C44.1385 14.864 44.6985 15.096 45.3545 15.096ZM61.466 18.888C60.138 18.888 58.954 18.624 57.914 18.096C56.89 17.552 56.09 16.816 55.514 15.888C54.938 14.944 54.65 13.88 54.65 12.696C54.65 11.48 54.946 10.4 55.538 9.45601C56.13 8.51201 56.93 7.78401 57.938 7.27201C58.946 6.76001 60.066 6.50401 61.298 6.50401C62.482 6.50401 63.49 6.76801 64.322 7.29601C65.17 7.80801 65.802 8.51201 66.218 9.40801C66.634 10.288 66.8421 11.28 66.8421 12.384C66.8421 12.672 66.826 12.88 66.794 13.008L59.594 13.944C59.786 14.504 60.098 14.912 60.53 15.168C60.962 15.408 61.53 15.528 62.234 15.528C63.322 15.528 64.498 15.248 65.762 14.688L66.362 17.904C64.874 18.56 63.242 18.888 61.466 18.888ZM63.122 10.92C62.866 9.91201 62.258 9.40801 61.298 9.40801C60.722 9.40801 60.266 9.62401 59.93 10.056C59.594 10.488 59.418 11.048 59.402 11.736L63.122 10.92ZM68.586 6.84001H73.41V9.28801C74.338 7.43201 75.81 6.50401 77.826 6.50401C79.362 6.50401 80.562 7.05601 81.426 8.16001C82.306 9.24801 82.746 10.76 82.746 12.696V18.696H77.706V12.192C77.706 11.504 77.554 10.976 77.25 10.608C76.962 10.24 76.554 10.056 76.026 10.056C75.642 10.056 75.266 10.184 74.898 10.44C74.53 10.68 74.226 11.032 73.986 11.496C73.762 11.96 73.65 12.488 73.65 13.08V18.696H68.586V6.84001Z" fill="#F4F4F5"/>
</svg>
